HIERARCHY
ROOT Hips
{
	OFFSET	0.00	0.00	0.00
	CHANNELS 6 Xposition Yposition Zposition Zrotation Xrotation Yrotation
	JOINT Spine
	{
		OFFSET	 0.00	0.01	 0.00
		CHANNELS 3 Zrotation Xrotation Yrotation
		JOINT Spine1
		{
			OFFSET	 0.00	 2.45913012437421	 0.00
			CHANNELS 3 Zrotation Xrotation Yrotation
            JOINT Neck
            {
                OFFSET	 0.00	 2.48462964506057	 0.00
                CHANNELS 3 Zrotation Xrotation Yrotation
                JOINT Head
                {
                    OFFSET	 0.00	 0.927524780924562	 0.00
                    CHANNELS 3 Zrotation Xrotation Yrotation
                    End Site 
                    {
                        OFFSET	 0.00	 1.14999962169752	 0.00
                    }
                }
            }
			JOINT LeftShoulder
			{
				OFFSET	 0.00	 2.48462964506057	 0.00
				CHANNELS 3 Zrotation Xrotation Yrotation
				JOINT LeftUpArm
				{
					OFFSET	 0.00	 1.24881979654096	 0.00
					CHANNELS 3 Zrotation Xrotation Yrotation
					JOINT LeftForeArm
					{
						OFFSET	 0.00	2.59758046908119	 0.00
						CHANNELS 3 Zrotation Xrotation Yrotation
						JOINT LeftHand
						{
							OFFSET	 0.00	2.45542024364365	 0.00
							CHANNELS 3 Zrotation Xrotation Yrotation
							JOINT LeftHandThumb 
							{
								OFFSET	 0.00	0.00	 0.00
								CHANNELS 3 Zrotation Xrotation Yrotation
								End Site
								{
									OFFSET	 0.00	0.00	1.00000003353624
								}
							}
							JOINT L_Wrist_End 
							{
								OFFSET	 0.00	0.99999967115358	 0.00
								CHANNELS 3 Zrotation Xrotation Yrotation
								End Site 
								{
									OFFSET	 0.00	 0.00	 0.00
								}
							}
						}
					}
				}
			}
			JOINT RightShoulder
			{
				OFFSET	 0.00	 2.48462964506057	 0.00
				CHANNELS 3 Zrotation Xrotation Yrotation
				JOINT RightUpArm
				{
					OFFSET	 0.00	 1.24881979654096	 0.00
					CHANNELS 3 Zrotation Xrotation Yrotation
					JOINT RightForeArm
					{
						OFFSET	 0.00	2.59758046908119	 0.00
						CHANNELS 3 Zrotation Xrotation Yrotation
						JOINT RightHand
						{
							OFFSET	 0.00	2.45542024364365	 0.00
							CHANNELS 3 Zrotation Xrotation Yrotation
							JOINT RightHandThumb 
							{
								OFFSET	 0.00	0.00	 0.00
								CHANNELS 3 Zrotation Xrotation Yrotation
								End Site
								{
									OFFSET	 0.00	0.00	1.00000003353624
								}
							}
							JOINT R_Wrist_End 
							{
								OFFSET	 0.00	0.99999967115358	 0.00
								CHANNELS 3 Zrotation Xrotation Yrotation
								End Site 
								{
									OFFSET	 0.00	 0.00	 0.00
								}
							}
						}
					}
				}
			}
		}
	}
	JOINT LeftUpLeg
	{
		OFFSET	 1.2719394002717	 0.00	 0.00
		CHANNELS 3 Zrotation Xrotation Yrotation
		JOINT LeftLowLeg
		{
			OFFSET	 0.00	-4.3429100912261	 0.00
			CHANNELS 3 Zrotation Xrotation Yrotation
			JOINT LeftFoot
			{
				OFFSET	 0.00	-4.48767017425826	 0.00
				CHANNELS 3 Zrotation Xrotation Yrotation
				JOINT LeftToeBase
                {
                    OFFSET	 0.00	0.00	 1.51507020887566
                    CHANNELS 3 Zrotation Xrotation Yrotation
                    End Site 
                    {
                        OFFSET	 0.00	0.00	 0.75000010571191
                    }
                }
			}
		}
	}
	JOINT RightUpLeg
	{
		OFFSET	 -1.2719393604653	 0.00	 0.00
		CHANNELS 3 Zrotation Xrotation Yrotation
		JOINT RightLowLeg
		{
			OFFSET	 0.00	-4.3429100912261	 0.00
			CHANNELS 3 Zrotation Xrotation Yrotation
			JOINT RightFoot
			{
				OFFSET	 0.00	-4.48767017425826	 0.00
				CHANNELS 3 Zrotation Xrotation Yrotation
				JOINT RightToeBase
                {
                    OFFSET	 0.00	0.00	 1.51507020887566
                    CHANNELS 3 Zrotation Xrotation Yrotation
                    End Site 
                    {
                        OFFSET	 0.00	0.00	 0.749999965609858
                    }
                }   
			}
		}
	}
}
MOTION 
Frames:	20 
Frame Time: 0.02 
  -2.7076901245117186 9.315020141601563 10.21510009765625 47.4022 78.6651 -294.383 4.42727 -11.0603 13.5068 22.7606 20.5749 -32.881 23.5118 33.8955 -82.3936 76.213 -44.7357 59.6619 -117.8347 9.28089 -6.75815 -27.6345 43.3642 21.1492 0.0 111.346 0.0 52.5682 23.2963 -2.29181 0.0 0.0 0.0 0.0 0.0 0.0 112.3875 -2.14024 3.15973 19.1772 12.4238 4.84901 0.0 120.414 0.0 -77.944 33.1267 10.5714 0.0 0.0 0.0 0.0 0.0 0.0 2.59931 4.59458 18.3334 0.0 23.4002 0.0 -7.34275 -7.8029995 21.9672 0.0 -12.80556 0.0 -1.55591 -9.91543 -14.6225 0.0 22.7153 0.0 19.0206 15.910402 -24.9964 0.0 -32.6492 0.0 
  -2.6422500610351562 9.246069946289062 10.222000122070312 45.2507 78.7132 -294.145 4.45165 -11.2546 13.8098 22.9025 20.7213 -32.5848 23.1011 33.8248 -81.9486 76.249 -44.7051 59.8769 -117.8888 9.09448 -7.00494 -27.7928 43.2954 21.5475 0.0 111.2 0.0 52.2184 23.5465 -2.73275 0.0 0.0 0.0 0.0 0.0 0.0 112.4368 -2.023 2.7764 19.1753 12.7997 4.92121 0.0 120.525 0.0 -77.83 32.6812 10.2638 0.0 0.0 0.0 0.0 0.0 0.0 2.90302 4.68326 18.4624 0.0 23.5198 0.0 -8.34642 -8.0399 22.627 0.0 -12.98543 0.0 -1.45938 -9.78533 -16.84 0.0 21.5754 0.0 19.6774 16.09821 -26.1409 0.0 -32.394302 0.0 
  -2.575169982910156 9.169520263671876 10.228800048828125 43.0823 78.895 -294.055 4.26165 -11.4259 14.1328 23.1026 20.843 -32.1444 22.5128 33.891 -81.238 76.285 -44.7404 60.0463 -117.9219 9.05747 -7.36385 -28.0041 43.0881 22.0148 0.0 111.082 0.0 52.7352 23.5448 -2.8482 0.0 0.0 0.0 0.0 0.0 0.0 112.2702 -1.84736 2.88857 19.5099 13.0546 4.63011 0.0 120.358 0.0 -78.0188 33.0849 10.663 0.0 0.0 0.0 0.0 0.0 0.0 3.13839 4.774 18.9911 0.0 23.6271 0.0 -9.44568 -8.1698 23.1068 0.0 -13.19684 0.0 -1.24943 -9.909 -18.9791 0.0 20.6201 0.0 19.9482 16.0575 -26.8786 0.0 -32.3023 0.0 
  -2.5053700256347655 9.08406982421875 10.235 40.688 79.1339 -293.778 3.80711 -11.4847 14.2285 23.5258 20.689 -31.6314 21.4341 34.1317 -80.0116 76.2807 -44.9889 60.017 -118.3599 8.92188 -7.13101 -27.1643 43.1431 21.6274 0.0 111.076 0.0 53.2954 23.3624 -2.90785 0.0 0.0 0.0 0.0 0.0 0.0 111.9181 -1.58351 2.83487 19.7753 13.3177 4.26103 0.0 120.451 0.0 -77.756 33.0644 10.1826 0.0 0.0 0.0 0.0 0.0 0.0 3.43839 4.8496 19.8122 0.0 23.7679 0.0 -10.5963 -8.263399 23.2629 0.0 -13.18347 0.0 -0.890101 -10.208 -21.1654 0.0 19.8236 0.0 20.0499 16.31817 -26.8915 0.0 -32.2125 0.0 
  -2.435780029296875 8.98948974609375 10.2397998046875 37.308 79.4896 -292.45 3.41875 -11.6582 14.3805 23.6104 20.5845 -31.1801 20.9396 34.1971 -79.3326 76.3758 -44.9499 60.3971 -118.3041 8.74108 -7.44005 -26.8379 43.0068 22.0726 0.0 111.157 0.0 53.9191 22.8073 -3.06375 0.0 0.0 0.0 0.0 0.0 0.0 111.9275 -1.47223 2.78656 19.8814 13.8673 4.00257 0.0 120.452 0.0 -77.6016 33.165 10.1356 0.0 0.0 0.0 0.0 0.0 0.0 3.80319 4.70179 20.7465 0.0 23.9785 0.0 -11.7824 -8.296499 23.1874 0.0 -13.53877 0.0 -0.407241 -10.8639 -23.2135 0.0 19.4616 0.0 21.4239 15.916887 -26.326 0.0 -31.4645 0.0 
  -2.359779968261719 8.897839965820312 10.243399658203124 34.4709 79.814 -291.626 3.29278 -11.8322 14.6308 23.3194 20.6436 -30.9203 20.4957 34.4523 -78.4932 76.5158 -44.8691 60.7211 -118.2279 8.69371 -7.69203 -27.5673 43.0254 22.3708 0.0 110.933 0.0 54.1237 22.8231 -3.13425 0.0 0.0 0.0 0.0 0.0 0.0 111.9868 -1.29866 2.74518 20.0992 14.47 3.78393 0.0 120.476 0.0 -77.7141 32.6717 11.0761 0.0 0.0 0.0 0.0 0.0 0.0 4.10945 4.85687 21.8639 0.0 23.9421 0.0 -12.9549 -8.2623005 23.0273 0.0 -13.85785 0.0 0.163384 -11.4941 -24.9682 0.0 19.5881 0.0 22.8554 14.961495 -25.9933 0.0 -29.713299 0.0 
  -2.28 8.8010302734375 10.245 31.547 80.1492 -290.564 3.14528 -11.9446 14.7609 22.8825 20.4876 -30.6872 19.9771 35.009 -77.4141 76.6463 -44.8779 60.9353 -118.139 8.59251 -7.73717 -27.6721 43.2621 22.4901 0.0 110.761 0.0 54.1741 22.2536 -3.53225 0.0 0.0 0.0 0.0 0.0 0.0 112.0109 -1.06022 2.42414 20.1926 15.1053 3.89405 0.0 120.536 0.0 -77.6365 32.2119 12.1275 0.0 0.0 0.0 0.0 0.0 0.0 4.4049 5.09623 23.0317 0.0 23.7399 0.0 -14.1118 -8.229401 22.8282 0.0 -14.01315 0.0 0.863956 -12.2257 -26.1066 0.0 20.1398 0.0 23.5056 13.42001 -26.495 0.0 -27.4707 0.0 
  -2.1921800231933593 8.703300170898437 10.246400146484374 28.8116 80.4508 -289.557 3.10316 -12.1215 14.8533 22.297 20.3955 -30.6171 19.5312 35.6802 -76.3411 76.7224 -44.8788 61.1514 -118.0332 8.48895 -7.2633 -27.2957 43.9446 21.9448 0.0 110.568 0.0 54.1143 21.6277 -3.92027 0.0 0.0 0.0 0.0 0.0 0.0 112.036896 -0.737337 2.36527 20.2381 15.5663 3.92531 0.0 120.679 0.0 -77.5015 31.6527 12.0676 0.0 0.0 0.0 0.0 0.0 0.0 4.69342 5.4727 24.1623 0.0 23.4458 0.0 -15.2635 -8.149401 22.6405 0.0 -14.206559 0.0 1.65563 -12.8534 -26.5933 0.0 20.7545 0.0 23.2124 11.839809 -27.5038 0.0 -25.3911 0.0 
  -2.0969500732421875 8.604609985351562 10.246700439453125 26.4536 80.7311 -288.741 3.31863 -12.1091 14.9744 21.1049 20.0631 -30.6206 19.4501 36.8061 -75.4139 77.2472 -44.8836 61.8214 -117.7816 8.28656 -6.9933 -27.3353 44.6796 21.8969 0.0 110.292 0.0 54.1372 21.4144 -4.2088 0.0 0.0 0.0 0.0 0.0 0.0 112.310104 -0.459696 1.88783 19.8962 16.0746 4.23461 0.0 120.829 0.0 -77.7483 31.1332 11.7226 0.0 0.0 0.0 0.0 0.0 0.0 4.93902 5.98827 25.1365 0.0 23.0668 0.0 -16.356 -8.029499 22.5557 0.0 -14.26662 0.0 2.47815 -13.3548 -26.4386 0.0 21.3937 0.0 22.2728 10.51251 -28.3854 0.0 -23.43288 0.0 
  -1.9966900634765625 8.5010400390625 10.247900390625 24.3296 80.9904 -287.806 3.10742 -12.4481 14.7987 20.88 20.1186 -30.7928 18.8582 37.1788 -74.3592 76.9765 -44.8355 61.8875 -117.4326 8.34418 -7.12106 -27.9089 45.8181 21.9252 0.0 110.02 0.0 53.9762 21.3094 -4.23284 0.0 0.0 0.0 0.0 0.0 0.0 112.0396 -0.481956 2.11198 19.5929 16.8467 4.59331 0.0 120.872 0.0 -77.735 31.1079 10.9036 0.0 0.0 0.0 0.0 0.0 0.0 5.24726 6.45155 25.6517 0.0 22.8135 0.0 -17.6495 -7.9011 22.5055 0.0 -14.522227 0.0 3.24214 -13.7617 -25.6157 0.0 22.156 0.0 21.0187 9.56098 -28.6017 0.0 -22.363571 0.0 
  -1.8894500732421875 8.394730224609376 10.245 22.1336 81.3098 -286.641 2.91947 -12.5272 14.4296 20.2497 19.5576 -30.9368 18.0717 38.2373 -72.8796 77.0839 -45.0906 62.0961 -117.191696 8.22199 -6.93875 -28.2904 46.9337 21.6162 0.0 109.919 0.0 53.5205 21.3604 -3.92517 0.0 0.0 0.0 0.0 0.0 0.0 111.7504 -0.29228 2.04098 19.0951 17.3096 5.22795 0.0 121.197 0.0 -77.3675 30.7286 10.5432 0.0 0.0 0.0 0.0 0.0 0.0 5.52261 6.79584 25.768 0.0 22.8008 0.0 -19.1277 -7.8586006 22.6055 0.0 -14.859355 0.0 3.961 -14.1681 -23.9802 0.0 23.0877 0.0 19.6584 8.61166 -28.4715 0.0 -21.850521 0.0 
  -1.7748599243164063 8.282369995117188 10.240899658203125 20.8502 81.6317 -286.183 2.80982 -12.6621 14.1364 19.3777 19.201 -31.1925 17.7011 39.3996 -71.7532 77.3408 -45.2143 62.507 -116.6702 8.35466 -6.6932 -28.4609 48.1315 21.025 0.0 109.974 0.0 53.1162 21.2103 -3.74579 0.0 0.0 0.0 0.0 0.0 0.0 111.6473 -0.195521 1.95185 18.4238 17.9146 6.1964 0.0 121.5 0.0 -77.2432 30.4605 10.0053 0.0 0.0 0.0 0.0 0.0 0.0 5.90355 7.02556 25.5553 0.0 23.3364 0.0 -20.8295 -7.8129997 22.7516 0.0 -15.389953 0.0 4.7434 -14.2525 -21.5359 0.0 23.8862 0.0 19.3151 7.15847 -28.5789 0.0 -21.02053 0.0 
  -1.653699951171875 8.160830078125 10.234299926757812 20.554 81.9171 -286.611 2.51877 -12.3744 13.6209 18.4375 18.1522 -31.2919 16.9065 41.4472 -69.8827 78.082 -45.7215 62.8696 -116.5217 8.31412 -6.22505 -28.3922 49.38 20.362 0.0 110.039 0.0 53.1028 21.0362 -3.72644 0.0 0.0 0.0 0.0 0.0 0.0 111.5366 -0.26264 1.35137 17.4715 18.8375 7.53455 0.0 121.742 0.0 -76.9367 30.1533 9.3685 0.0 0.0 0.0 0.0 0.0 0.0 6.57667 6.96194 25.0359 0.0 24.9082 0.0 -22.9336 -7.6998997 22.6971 0.0 -16.41406 0.0 5.71654 -13.8326 -18.3967 0.0 24.1552 0.0 19.9961 5.2204103 -28.8121 0.0 -20.76706 0.0 
  -1.5286599731445312 8.028590087890626 10.2277001953125 21.291 82.1773 -288.027 2.04176 -12.1635 12.9559 17.7169 17.3689 -31.5784 16.2679 43.1614 -68.3714 78.4162 -46.0589 63.4327 -116.3754 8.13801 -5.98607 -28.0841 50.8506 19.4958 0.0 109.987 0.0 53.4161 20.8739 -4.06147 0.0 0.0 0.0 0.0 0.0 0.0 111.194 0.0535634 0.693817 16.7673 19.7424 9.12846 0.0 121.976 0.0 -76.3783 30.0711 8.84168 0.0 0.0 0.0 0.0 0.0 0.0 7.59514 6.39578 24.3444 0.0 27.8329 0.0 -25.4406 -7.2728004 22.5388 0.0 -17.92741 0.0 6.81685 -12.9861 -15.1501 0.0 23.9627 0.0 20.5676 3.2960997 -29.0964 0.0 -19.64785 0.0 
  -1.405330047607422 7.888889770507813 10.224000244140624 21.4764 82.3769 -289.058 1.51755 -12.2417 12.4702 17.3367 17.0437 -31.7995 15.7805 44.4862 -67.0907 78.5239 -46.1565 63.8992 -115.9775 8.29653 -6.19357 -28.1874 52.2192 18.8065 0.0 109.918 0.0 53.4429 20.6643 -4.57065 0.0 0.0 0.0 0.0 0.0 0.0 110.9718 0.0488388 0.893289 16.1972 21.0279 10.2329 0.0 122.13 0.0 -75.8239 29.6449 8.21274 0.0 0.0 0.0 0.0 0.0 0.0 8.99578 5.10092 23.6458 0.0 32.0894 0.0 -27.8214 -6.1005 22.5298 0.0 -19.84465 0.0 7.96945 -12.2585 -12.9147 0.0 23.6691 0.0 20.1274 2.0637999 -29.6062 0.0 -18.71695 0.0 
  -1.2908200073242186 7.7427301025390625 10.221699829101562 21.1513 82.465 -289.936 1.04534 -12.1948 11.9826 16.8889 16.6068 -32.01 15.1146 46.1861 -65.3487 78.5891 -46.2134 64.3683 -115.6822 8.21829 -6.32098 -27.8778 53.66 17.6744 0.0 109.581 0.0 53.7256 20.5361 -5.20293 0.0 0.0 0.0 0.0 0.0 0.0 110.7487 0.412135 0.722641 15.7543 22.5931 11.4173 0.0 122.034 0.0 -75.5889 29.6828 7.79775 0.0 0.0 0.0 0.0 0.0 0.0 10.6871 3.14499 22.8568 0.0 37.4087 0.0 -28.9211 -3.854601 23.5131 0.0 -21.62013 0.0 8.98414 -12.1075 -11.4209 0.0 24.4153 0.0 19.4733 1.7237997 -29.5186 0.0 -18.62813 0.0 
  -1.1837799835205078 7.599359741210938 10.213699951171876 21.3926 82.5884 -291.793 0.621491 -11.8103 11.7653 16.0249 15.8038 -31.864 15.5119 48.333 -64.6576 78.7948 -45.9616 65.5338 -115.410904 8.42408 -5.82415 -26.7476 55.1206 15.7333 0.0 109.164 0.0 54.2992 20.17 -5.71152 0.0 0.0 0.0 0.0 0.0 0.0 110.8527 0.824042 0.125108 14.9303 24.1318 12.9526 0.0 121.643 0.0 -75.9583 30.5464 6.44906 0.0 0.0 0.0 0.0 0.0 0.0 12.2537 0.907313 22.1669 0.0 43.0626 0.0 -26.7954 -0.58500004 25.8346 0.0 -22.00607 0.0 9.69947 -12.1023 -11.1835 0.0 25.7179 0.0 18.049 1.7124996 -28.6827 0.0 -18.53357 0.0 
  -1.0812699890136719 7.46197998046875 10.201199951171875 22.3157 82.8096 -294.627 -0.0338813 -11.4601 11.3174 15.6242 15.2009 -31.8951 14.3824 50.3229 -62.2137 78.6517 -45.9582 66.1818 -115.2156 8.33609 -5.75926 -25.1666 56.4053 13.2738 0.0 108.753 0.0 55.3579 19.7508 -6.56071 0.0 0.0 0.0 0.0 0.0 0.0 110.4538 1.37963 -0.054045 14.7858 26.3481 13.7212 0.0 121.106 0.0 -76.2841 30.7749 6.27762 0.0 0.0 0.0 0.0 0.0 0.0 13.4967 -1.46517 21.7507 0.0 48.6119 0.0 -20.0186 3.9728003 29.0832 0.0 -20.80229 0.0 10.212 -11.7122 -11.2839 0.0 26.5399 0.0 16.4612 1.5010996 -27.213 0.0 -18.716011 0.0 
  -0.9823819732666016 7.329019775390625 10.1847998046875 23.651 83.133 -298.365 -0.456083 -11.1936 11.3656 14.7239 14.9281 -31.7048 13.9689 52.0757 -60.524 78.4367 -45.4768 67.113 -114.6156 8.60041 -5.56802 -23.1451 57.4807 10.3527 0.0 108.428 0.0 56.3554 19.3296 -7.64208 0.0 0.0 0.0 0.0 0.0 0.0 110.587296 1.5861 -0.449759 14.4225 29.0041 14.8277 0.0 120.317 0.0 -76.8941 30.6677 7.18088 0.0 0.0 0.0 0.0 0.0 0.0 14.1995 -3.49826 21.2081 0.0 53.3157 0.0 -13.2475 9.15447 30.6408 0.0 -25.193699 0.0 10.6874 -11.0841 -10.6978 0.0 26.939 0.0 15.1974 1.0390997 -25.6487 0.0 -18.72962 0.0 
  -0.8878690338134766 7.199609985351563 10.166699829101562 24.9555 83.6002 -302.461 -0.707879 -11.1662 11.5737 13.5412 15.1497 -31.6342 12.6487 53.2799 -57.6926 77.7454 -44.8031 67.5639 -113.6926 8.51649 -5.60032 -20.7092 58.4907 7.01555 0.0 108.238 0.0 56.881 19.0193 -8.21529 0.0 0.0 0.0 0.0 0.0 0.0 110.7461 2.03642 -0.776968 14.4999 31.8087 15.6563 0.0 119.579 0.0 -77.3558 30.621 8.23753 0.0 0.0 0.0 0.0 0.0 0.0 14.3464 -5.30106 20.0991 0.0 57.5504 0.0 -13.0121 7.89185 28.254 0.0 -26.5158 0.0 11.0976 -10.6666 -9.40578 0.0 27.5255 0.0 14.2878 0.5031996 -24.5282 0.0 -18.87874 0.0 
